# xmcd
#
# Track frame offsets:
#	150
#	22685
#	41445
#	60488
#	82563
#	101608
#	118660
#	141088
#	163073
#	183493
#
# Disc length: 2716 seconds
# Revision: 2
# Processed by: cddbd v1.5.2PL0 Copyright (c) Steve Scherf et al.
# Submitted via: dBpowerAMP V12.0
#
DISCID=700a9a0a
DTITLE=Johnnie Taylor - Real Love
DYEAR=1994
DGENRE=Soul
TTITLE0=Back Street Love Affair
TTITLE1=Too Much Week at The End of The Money
TTITLE2=Lady in Red
TTITLE3=Lady Soul
TTITLE4=Changin' my Life With Your Love
TTITLE5=Poor Boy Blue
TTITLE6=Respect Yourself
TTITLE7=Real Love
TTITLE8=Sexy Dancer
TTITLE9=Huntin' Just Ain't no More Fun
EXTD=
EXTT0=
EXTT1=
EXTT2=
EXTT3=
EXTT4=
EXTT5=
EXTT6=
EXTT7=
EXTT8=
EXTT9=
PLAYORDER=
